HIERARCHY
ROOT Hip
{
	OFFSET 0.000000 0.000000 0.000000 
	CHANNELS 6 Xposition Yposition Zposition Yrotation Xrotation Zrotation
	JOINT Waist
	{
		OFFSET -0.157149 -3.141506 7.730595 
		CHANNELS 3 Xrotation Yrotation Zrotation
		JOINT Chest
		{
			OFFSET 0.000000 0.355194 13.461181 
			CHANNELS 3 Xrotation Yrotation Zrotation
			JOINT Shoulder
			{
				OFFSET 7.565330 1.513066 17.211126 
				CHANNELS 3 Xrotation Zrotation Yrotation
				JOINT Forearm
				{
					OFFSET 1.647294 -12.917992 -3.352537 
					CHANNELS 3 Xrotation Zrotation Yrotation
					JOINT Wrist
					{
						OFFSET 0.731359 -16.590012 -0.106047 
						CHANNELS 3 Xrotation Zrotation Yrotation
						JOINT Hand
						{
							OFFSET 0.255159 -4.905398 2.466771 
							CHANNELS 3 Zrotation Xrotation Yrotation
							End Site
							{
								OFFSET -0.039699 -4.772444 4.497966 
							}
						}
					}
				}
			}
			JOINT Shoulder
			{
				OFFSET -7.565330 1.513066 17.211126 
				CHANNELS 3 Xrotation Zrotation Yrotation
				JOINT Forearm
				{
					OFFSET -1.647294 -12.917992 -3.352537 
					CHANNELS 3 Xrotation Zrotation Yrotation
					JOINT Wrist
					{
						OFFSET -0.731359 -16.590012 -0.106047 
						CHANNELS 3 Xrotation Zrotation Yrotation
						JOINT Hand
						{
							OFFSET -0.255159 -4.905398 2.466771 
							CHANNELS 3 Zrotation Xrotation Yrotation
							End Site
							{
								OFFSET -0.029013 -4.822814 3.003813 
							}
						}
					}
				}
			}
			JOINT 1
			{
				OFFSET 0.000000 11.537129 16.832861 
				CHANNELS 3 Xrotation Yrotation Zrotation
				JOINT 2
				{
					OFFSET 0.000000 5.863129 3.593532 
					CHANNELS 3 Xrotation Yrotation Zrotation
					JOINT Head
					{
						OFFSET 0.000000 5.295731 5.484864 
						CHANNELS 3 Xrotation Yrotation Zrotation
						JOINT 1
						{
							OFFSET 6.239506 9.103554 -2.720304 
							CHANNELS 3 Zrotation Yrotation Xrotation
							JOINT 2
							{
								OFFSET 4.745845 1.583042 -0.650239 
								CHANNELS 3 Zrotation Yrotation Xrotation
								JOINT 3
								{
									OFFSET 4.335029 -0.208989 1.321664 
									CHANNELS 3 Zrotation Yrotation Xrotation
									End Site
									{
										OFFSET 4.537099 1.076356 1.696524 
									}
								}
							}
						}
						JOINT 1
						{
							OFFSET -5.658905 9.616671 -2.227422 
							CHANNELS 3 Zrotation Yrotation Xrotation
							JOINT 2
							{
								OFFSET -4.263385 1.095081 -1.466161 
								CHANNELS 3 Zrotation Yrotation Xrotation
								JOINT 3
								{
									OFFSET -5.424190 0.397556 1.780690 
									CHANNELS 3 Zrotation Yrotation Xrotation
									End Site
									{
										OFFSET -4.327729 -0.307336 2.275274 
									}
								}
							}
						}
					}
				}
			}
		}
	}
	JOINT Thigh
	{
		OFFSET 7.219048 -2.029780 0.197985 
		CHANNELS 3 Xrotation Zrotation Yrotation
		JOINT Leg
		{
			OFFSET 0.684738 -14.403630 -7.219027 
			CHANNELS 3 Xrotation Zrotation Yrotation
			JOINT Shin
			{
				OFFSET 1.376871 -9.889268 -6.873859 
				CHANNELS 3 Xrotation Zrotation Yrotation
				JOINT Foot
				{
					OFFSET 0.043122 -8.759594 -1.987979 
					CHANNELS 3 Zrotation Xrotation Yrotation
					End Site
					{
						OFFSET 0.493146 -5.454088 3.284298 
					}
				}
			}
		}
	}
	JOINT Thigh
	{
		OFFSET -7.533346 -2.029780 0.197985 
		CHANNELS 3 Xrotation Zrotation Yrotation
		JOINT Leg
		{
			OFFSET -0.684738 -14.403630 -7.219027 
			CHANNELS 3 Xrotation Zrotation Yrotation
			JOINT Shin
			{
				OFFSET -1.376871 -9.889268 -6.873859 
				CHANNELS 3 Xrotation Zrotation Yrotation
				JOINT Foot
				{
					OFFSET -0.043122 -8.759594 -1.987979 
					CHANNELS 3 Zrotation Xrotation Yrotation
					End Site
					{
						OFFSET -0.148981 -5.451739 2.825272 
					}
				}
			}
		}
	}
	JOINT 1
	{
		OFFSET -0.157149 6.102950 -6.043413 
		CHANNELS 3 Xrotation Yrotation Zrotation
		JOINT 2
		{
			OFFSET -0.567400 -3.404397 -14.374126 
			CHANNELS 3 Xrotation Yrotation Zrotation
			JOINT 3
			{
				OFFSET 0.957659 -0.131449 -8.953003 
				CHANNELS 3 Xrotation Yrotation Zrotation
				JOINT 4
				{
					OFFSET 0.150134 -0.011916 -8.082417 
					CHANNELS 3 Xrotation Yrotation Zrotation
					End Site
					{
						OFFSET 0.450824 -0.512551 -9.630859 
					}
				}
			}
		}
	}
}
MOTION
Frames: 4
Frame Time: 0.066667
0.145185 43.375629 -4.649595 0.000000 -1.000000 0.000000 0.000000 0.000000 0.000000 17.886700 0.000000 0.000000 -16.875139 0.373550 0.122295 -35.771198 0.000098 0.000097 37.265602 0.132351 0.210431 -1.639090 -6.677181 -2.321917 7.709100 0.251136 -0.655505 -17.301300 0.072072 -0.030818 27.597654 0.000000 0.000000 -2.025953 -28.111355 -1.313364 18.105471 0.000000 0.000000 12.128904 0.000000 0.000000 -3.867187 0.000000 0.000000 -60.739132 -0.668740 -14.178622 -14.238980 -1.261168 3.651979 -20.121290 -12.077639 1.452558 61.396652 10.700607 -12.745060 9.297395 10.287944 3.888875 16.719303 -13.676170 0.501534 -3.516386 -0.555778 -0.010020 -5.097568 -0.325556 -0.221246 -15.668375 -3.528097 1.140499 2.839782 27.183674 -2.664201 -19.511814 0.163214 -0.065271 -5.800782 0.000000 0.000000 -13.549586 2.966053 -1.306629 -5.030566 29.634945 -0.700077 -35.156246 0.000000 0.000000 1.054690 -0.187738 -0.162374 -2.460938 0.000000 0.000000 13.565161 -1.389753 -1.049765 
0.147518 43.993320 -4.651941 0.000000 -0.910230 0.000000 0.000000 0.000000 0.000000 18.388399 0.000000 0.000000 -15.996235 0.373550 0.122295 -36.178799 0.000072 -0.000279 35.332001 0.132351 0.210431 -1.582374 -4.920462 -2.348613 8.404130 0.263870 -0.647923 -12.967800 0.075693 -0.023535 41.308590 0.000000 0.000000 -1.651179 -8.779005 -1.348736 18.105471 0.000000 0.000000 11.953123 0.000000 0.000000 -3.867187 0.000000 0.000000 -60.584877 -0.479229 -14.225756 -11.567284 -6.013962 3.291808 -20.121290 -12.077639 1.452558 61.530968 10.190588 -12.737040 9.315412 10.286765 3.713968 16.719303 -13.676170 0.501534 -0.528105 -0.555778 -0.010020 -9.140537 -0.325556 -0.221246 -16.547281 -3.528097 1.140499 2.629453 29.457479 -2.369065 -23.906343 0.163214 -0.065271 -0.703125 0.000000 0.000000 -16.889431 2.966053 -1.306629 -4.820098 34.025688 -0.765280 -34.453125 0.000000 0.000000 1.054690 -0.187738 -0.162374 -2.460938 0.000000 0.000000 13.565161 -1.389753 -1.049765 
0.148556 43.146057 -4.653000 0.000000 -0.904382 0.000000 0.000000 0.000000 0.000000 18.727301 0.000000 0.000000 -14.589984 0.373550 0.122295 -35.575199 0.000069 -0.000324 33.222630 0.132351 0.210431 -1.553836 -4.042125 -2.349460 8.410590 0.264285 -0.647676 -11.496600 0.075810 -0.023299 51.328125 0.000000 0.000000 -1.342767 7.213838 -1.470491 18.105471 0.000000 0.000000 11.953123 0.000000 0.000000 -3.867187 0.000000 0.000000 -60.584877 -0.479229 -14.225756 -9.468498 -9.685037 2.994190 -20.121290 -12.077639 1.452558 61.620380 9.850528 -12.752465 9.315412 10.286765 3.713968 16.719303 -13.676170 0.501534 1.932833 -0.555778 -0.010020 -12.128819 -0.325556 -0.221246 -16.547281 -3.528097 1.140499 2.595740 29.807243 -2.349092 -27.773531 0.163214 -0.065271 3.691406 0.000000 0.000000 -19.701929 2.966053 -1.306628 -4.647261 37.362488 -0.845994 -34.101563 0.000000 0.000000 1.054690 -0.187738 -0.162374 -2.460938 0.000000 0.000000 13.565161 -1.389753 -1.049765 
0.147602 42.966457 -4.652035 0.000000 -1.000000 0.000000 0.000000 0.000000 0.000000 18.886700 0.000000 0.000000 -12.832171 0.373550 0.122295 -33.771198 0.000098 0.000097 31.289036 0.132351 0.210431 -1.536648 -3.515113 -2.358480 7.709100 0.251136 -0.655505 -13.301300 0.072072 -0.030818 57.480469 0.000000 0.000000 -1.064000 19.866930 -1.604807 18.105471 0.000000 0.000000 12.128904 0.000000 0.000000 -3.867187 0.000000 0.000000 -60.739132 -0.668740 -14.178622 -8.224003 -11.820815 2.935089 -20.121290 -12.077639 1.452558 61.620380 9.850528 -12.752465 9.297395 10.287944 3.888875 16.719303 -13.676170 0.501534 3.514863 -0.555778 -0.010020 -14.062412 -0.325556 -0.221246 -15.668375 -3.528097 1.140499 2.760642 28.058262 -2.533614 -31.464943 0.163214 -0.065271 7.207031 0.000000 0.000000 -21.459742 2.966053 -1.306629 -4.521047 39.645489 -0.941248 -34.101563 0.000000 0.000000 1.054690 -0.187738 -0.162374 -2.460938 0.000000 0.000000 13.565161 -1.389753 -1.049765 
